<svg xmlns="http://www.w3.org/2000/svg" width="442.811" height="512" viewBox="0 0 442.811 512"><g id="favicon_TNK" data-name="favicon TNK" transform="translate(-2660 -7898.729)"><path id="Trazado_22024" data-name="Trazado 22024" d="M38.054,0h366.7a38.054,38.054,0,0,1,38.054,38.054V473.946A38.054,38.054,0,0,1,404.757,512H38.054A38.054,38.054,0,0,1,0,473.946V38.054A38.054,38.054,0,0,1,38.054,0Z" transform="translate(2660 7898.729)" fill="#fff"></path><path id="Rect&#xE1;ngulo_7591_-_Contorno" data-name="Rect&#xE1;ngulo 7591 - Contorno" d="M38.054,13.838A24.244,24.244,0,0,0,13.838,38.054V473.946a24.244,24.244,0,0,0,24.216,24.216h366.7a24.244,24.244,0,0,0,24.216-24.216V38.054a24.244,24.244,0,0,0-24.216-24.216H38.054M38.054,0h366.7a38.054,38.054,0,0,1,38.054,38.054V473.946A38.054,38.054,0,0,1,404.757,512H38.054A38.054,38.054,0,0,1,0,473.946V38.054A38.054,38.054,0,0,1,38.054,0Z" transform="translate(2660 7898.729)"></path><g id="Grupo_12112" data-name="Grupo 12112" transform="translate(2710.726 7935.979)"><g id="Grupo_5593" data-name="Grupo 5593" transform="translate(16.289 0)"><circle id="Elipse_1" data-name="Elipse 1" cx="67.888" cy="67.888" r="67.888" transform="translate(83.029 34.82)" fill="#ea1c27"></circle><path id="Trazado_1" data-name="Trazado 1" d="M-262.686-99.108c48.777,0,88.458,40.844,88.458,91.051S-213.909,83-262.686,83s-88.461-40.844-88.461-91.051,39.684-91.051,88.461-91.051m0-12.15c-55.375,0-100.265,46.2-100.265,103.2s44.89,103.2,100.265,103.2,100.26-46.2,100.26-103.2-44.887-103.2-100.26-103.2Z" transform="translate(414.279 111.257)"></path><path id="Trazado_2" data-name="Trazado 2" d="M-275.316-86.916c35.508,0,64.395,30,64.395,66.881s-28.887,66.88-64.395,66.88-64.392-30-64.392-66.88,28.887-66.881,64.392-66.881m0-12.148c-42.024,0-76.091,35.382-76.091,79.029s34.066,79.029,76.091,79.029,76.088-35.382,76.088-79.029-34.066-79.029-76.088-79.029Z" transform="translate(426.109 123.751)"></path><g id="Grupo_1" data-name="Grupo 1" transform="translate(0 24.718)"><path id="Trazado_3" data-name="Trazado 3" d="M-158.8-99.049a114.066,114.066,0,0,1,32.512,80c0,62.479-49.858,113.31-111.145,113.31S-348.579,43.431-348.579-19.048a114.067,114.067,0,0,1,32.512-80H-366.3a155.322,155.322,0,0,0-22,80c0,84.944,67.544,153.8,150.865,153.8S-86.569,65.9-86.569-19.048a155.3,155.3,0,0,0-22-80Z" transform="translate(388.302 99.049)"></path><rect id="Rect&#xE1;ngulo_1" data-name="Rect&#xE1;ngulo 1" width="87.564" height="61.584" transform="translate(107.829 218.429)"></rect></g></g><g id="Grupo_2" data-name="Grupo 2" transform="translate(0 320.778)"><path id="Trazado_4" data-name="Trazado 4" d="M-394.463,50.627h96.034v27.19h-32.218V160.74h-31.6V77.817h-32.218Z" transform="translate(394.463 -50.627)" fill="#ea1c27"></path><path id="Trazado_5" data-name="Trazado 5" d="M-338.878,50.627h29.5l38.5,60.92V50.627H-241.1V160.74h-29.777l-38.294-60.46v60.46h-29.711Z" transform="translate(448.713 -50.627)" fill="#ea1c27"></path><path id="Trazado_6" data-name="Trazado 6" d="M-279.159,50.627h31.6v41.61l33.093-41.61h42.022L-209.76,92.188l38.988,68.551h-38.909l-21.556-45.283-16.323,18.412V160.74h-31.6Z" transform="translate(506.74 -50.627)" fill="#ea1c27"></path></g><g id="Grupo_3" data-name="Grupo 3" transform="translate(344.658 313.468)"><path id="Trazado_7" data-name="Trazado 7" d="M-221.1,58.077V46.147h5.069a8.661,8.661,0,0,1,2.777.322,2.742,2.742,0,0,1,1.39,1.142,3.459,3.459,0,0,1,.52,1.881,3.179,3.179,0,0,1-.789,2.217,3.778,3.778,0,0,1-2.358,1.1,5.64,5.64,0,0,1,1.287,1,13.585,13.585,0,0,1,1.373,1.938l1.456,2.327h-2.877l-1.745-2.6a16.307,16.307,0,0,0-1.27-1.754,1.824,1.824,0,0,0-.723-.5,3.97,3.97,0,0,0-1.211-.135h-.493v4.981Zm2.4-6.884h1.784a9.061,9.061,0,0,0,2.164-.148,1.289,1.289,0,0,0,.677-.5,1.543,1.543,0,0,0,.243-.895,1.421,1.421,0,0,0-.321-.972,1.464,1.464,0,0,0-.907-.468c-.2-.028-.782-.04-1.757-.04H-218.7Z" transform="translate(221.105 -46.147)"></path></g><path id="Elipse_2" data-name="Elipse 2" d="M14.409-.65A15.059,15.059,0,1,1-.65,14.409,15.076,15.076,0,0,1,14.409-.65Zm0,25.62A10.561,10.561,0,1,0,3.847,14.409,10.573,10.573,0,0,0,14.409,24.97Z" transform="translate(335.043 304.85)"></path></g></g></svg>